<svg xmlns="http://www.w3.org/2000/svg" xmlns:xlink="http://www.w3.org/1999/xlink" width="500" zoomAndPan="magnify" viewBox="0 0 375 374.999991" height="500" preserveAspectRatio="xMidYMid meet" version="1.0"><defs><g/><clipPath id="73ab9d2685"><path d="M 187.5 0 C 83.945312 0 0 83.945312 0 187.5 C 0 291.054688 83.945312 375 187.5 375 C 291.054688 375 375 291.054688 375 187.5 C 375 83.945312 291.054688 0 187.5 0 Z M 187.5 0 " clip-rule="nonzero"/></clipPath></defs><g clip-path="url(#73ab9d2685)"><rect x="-37.5" width="450" fill="#448361" y="-37.499999" height="449.999989" fill-opacity="1"/></g><g fill="#ffffff" fill-opacity="1"><g transform="translate(77.947096, 303.168621)"><g><path d="M 24.84375 2.09375 C 38.5 2.09375 45.5 -3.84375 51.796875 -24.15625 L 60.203125 -49.34375 L 158.90625 -49.34375 L 167.65625 -23.453125 C 172.90625 -6.65625 178.84375 2.09375 194.59375 2.09375 C 208.953125 2.09375 218.40625 -5.953125 218.40625 -18.546875 C 218.40625 -29.046875 214.546875 -39.90625 211.046875 -49.34375 L 146.65625 -222.25 C 138.953125 -242.90625 127.75 -254.09375 109.90625 -254.09375 C 91.34375 -254.09375 80.5 -242.90625 72.796875 -222.25 L 9.09375 -51.796875 C 4.90625 -40.59375 0.703125 -28.703125 0.703125 -18.546875 C 0.703125 -5.953125 10.15625 2.09375 24.84375 2.09375 Z M 75.25 -95.90625 L 110.25 -197.046875 L 110.953125 -197.046875 L 143.84375 -95.90625 Z M 75.25 -95.90625 "/></g></g></g></svg>