<svg xmlns="http://www.w3.org/2000/svg" xmlns:xlink="http://www.w3.org/1999/xlink" width="500" zoomAndPan="magnify" viewBox="0 0 375 374.999991" height="500" preserveAspectRatio="xMidYMid meet" version="1.0"><defs><g/><clipPath id="85ad84288b"><path d="M 187.5 0 C 83.945312 0 0 83.945312 0 187.5 C 0 291.054688 83.945312 375 187.5 375 C 291.054688 375 375 291.054688 375 187.5 C 375 83.945312 291.054688 0 187.5 0 Z M 187.5 0 " clip-rule="nonzero"/></clipPath></defs><g clip-path="url(#85ad84288b)"><rect x="-37.5" width="450" fill="#448361" y="-37.499999" height="449.999989" fill-opacity="1"/></g><g fill="#ffffff" fill-opacity="1"><g transform="translate(115.572405, 305.533655)"><g><path d="M 57.046875 4.90625 C 104.65625 4.90625 128.453125 -21 128.453125 -71.40625 L 128.453125 -225.046875 C 128.453125 -241.5 118.296875 -251.296875 103.25 -251.296875 C 88.203125 -251.296875 78.046875 -241.5 78.046875 -225.046875 L 78.046875 -79.453125 C 78.046875 -54.25 72.09375 -43.046875 55.65625 -43.046875 C 39.546875 -43.046875 31.15625 -56.703125 19.25 -56.703125 C 4.90625 -56.703125 -3.5 -46.546875 -3.5 -31.84375 C -3.5 -6.65625 29.40625 3.84375 57.046875 4.90625 Z M 57.046875 4.90625 "/></g></g></g></svg>