<svg xmlns="http://www.w3.org/2000/svg" xmlns:xlink="http://www.w3.org/1999/xlink" width="500" zoomAndPan="magnify" viewBox="0 0 375 374.999991" height="500" preserveAspectRatio="xMidYMid meet" version="1.0"><defs><g/><clipPath id="7708f75fea"><path d="M 187.5 0 C 83.945312 0 0 83.945312 0 187.5 C 0 291.054688 83.945312 375 187.5 375 C 291.054688 375 375 291.054688 375 187.5 C 375 83.945312 291.054688 0 187.5 0 Z M 187.5 0 " clip-rule="nonzero"/></clipPath></defs><g clip-path="url(#7708f75fea)"><rect x="-37.5" width="450" fill="#448361" y="-37.499999" height="449.999989" fill-opacity="1"/></g><g fill="#ffffff" fill-opacity="1"><g transform="translate(107.696474, 323.056169)"><g><path d="M 79.796875 2.09375 C 94.84375 2.09375 105 -7.703125 105 -24.15625 L 105 -202.65625 L 141.046875 -202.65625 C 156.09375 -202.65625 166.25 -211.40625 166.25 -225.75 C 166.25 -240.453125 156.09375 -249.203125 141.046875 -249.203125 L 18.546875 -249.203125 C 3.5 -249.203125 -6.65625 -240.453125 -6.65625 -225.75 C -6.65625 -211.40625 3.5 -202.65625 18.546875 -202.65625 L 54.59375 -202.65625 L 54.59375 -24.15625 C 54.59375 -7.703125 64.75 2.09375 79.796875 2.09375 Z M 79.796875 2.09375 "/></g></g></g></svg>