<svg xmlns="http://www.w3.org/2000/svg" xmlns:xlink="http://www.w3.org/1999/xlink" width="500" zoomAndPan="magnify" viewBox="0 0 375 374.999991" height="500" preserveAspectRatio="xMidYMid meet" version="1.0"><defs><g/><clipPath id="eb58156120"><path d="M 187.5 0 C 83.945312 0 0 83.945312 0 187.5 C 0 291.054688 83.945312 375 187.5 375 C 291.054688 375 375 291.054688 375 187.5 C 375 83.945312 291.054688 0 187.5 0 Z M 187.5 0 " clip-rule="nonzero"/></clipPath></defs><g clip-path="url(#eb58156120)"><rect x="-37.5" width="450" fill="#448361" y="-37.499999" height="449.999989" fill-opacity="1"/></g><g fill="#ffffff" fill-opacity="1"><g transform="translate(95.272277, 325.242255)"><g><path d="M 92.046875 2.09375 C 107.453125 2.09375 117.25 -7.703125 117.25 -24.15625 L 117.25 -117.25 L 169.75 -191.796875 C 184.09375 -211.046875 189.703125 -219.796875 189.703125 -229.25 C 189.703125 -241.84375 178.5 -251.296875 163.453125 -251.296875 C 156.09375 -251.296875 148.75 -250.25 137.203125 -233.453125 L 92.046875 -166.25 L 48.296875 -231.34375 C 43.046875 -239.046875 35.703125 -251.296875 21 -251.296875 C 5.953125 -251.296875 -5.25 -241.84375 -5.25 -229.25 C -5.25 -219.453125 1.40625 -209.65625 15.75 -190.40625 L 66.84375 -117.25 L 66.84375 -24.15625 C 66.84375 -7.703125 77 2.09375 92.046875 2.09375 Z M 92.046875 2.09375 "/></g></g></g></svg>